# xmcd
#
# Track frame offsets:
#	150
#	11776
#	28202
#	41328
#	52054
#	67205
#	82356
#	100207
#	119033
#	133583
#
# Disc length: 2057 seconds
#
# Revision: 1
# Processed by: cddbd v1.5.2PL0 Copyright (c) Steve Scherf et al.
# Submitted via: audiograbber 1.83.01
#
DISCID=9908070a
DTITLE=Eddie Rabbitt - Variations
DYEAR=1978
DGENRE=Country
TTITLE0=Hearts On Fire
TTITLE1=The Room At The Top Of The Stairs
TTITLE2=Crossin' The Mississippi
TTITLE3=Plain As The Pain On My Face
TTITLE4=Hurtin' For You
TTITLE5=You Don't Love Me Anymore
TTITLE6=Kentucky Rain
TTITLE7=I Just Want To Love You
TTITLE8=Caroline
TTITLE9=Song Of Ireland
EXTD=
EXTT0=
EXTT1=
EXTT2=
EXTT3=
EXTT4=
EXTT5=
EXTT6=
EXTT7=
EXTT8=
EXTT9=
PLAYORDER=
